<svg width="206" height="52" viewBox="0 0 206 52" fill="none" xmlns="http://www.w3.org/2000/svg">
<path d="M61.1026 14.7416H63.8026C63.8559 15.1949 64.0626 15.6082 64.4226 15.9816C64.7959 16.3416 65.2826 16.6282 65.8826 16.8416C66.4826 17.0416 67.1559 17.1416 67.9026 17.1416C68.5826 17.1416 69.1426 17.0682 69.5826 16.9216C70.0226 16.7749 70.3493 16.5682 70.5626 16.3016C70.7759 16.0349 70.8826 15.7149 70.8826 15.3416C70.8826 14.9816 70.7493 14.7082 70.4826 14.5216C70.2159 14.3216 69.7959 14.1616 69.2226 14.0416C68.6493 13.9082 67.8959 13.7749 66.9626 13.6416C66.2293 13.5349 65.5359 13.3882 64.8826 13.2016C64.2293 13.0016 63.6493 12.7482 63.1426 12.4416C62.6493 12.1349 62.2559 11.7616 61.9626 11.3216C61.6826 10.8682 61.5426 10.3349 61.5426 9.72156C61.5426 8.96156 61.7559 8.2949 62.1826 7.72156C62.6226 7.14823 63.2693 6.70156 64.1226 6.38156C64.9759 6.06156 66.0226 5.90156 67.2626 5.90156C69.1293 5.90156 70.5626 6.30156 71.5626 7.10156C72.5759 7.88823 73.0693 8.9749 73.0426 10.3616H70.4426C70.3893 9.5749 70.0559 9.00823 69.4426 8.66156C68.8426 8.3149 68.0826 8.14156 67.1626 8.14156C66.3093 8.14156 65.6026 8.26823 65.0426 8.52156C64.4959 8.77489 64.2226 9.20823 64.2226 9.82156C64.2226 10.0616 64.2893 10.2749 64.4226 10.4616C64.5559 10.6349 64.7826 10.7882 65.1026 10.9216C65.4226 11.0549 65.8559 11.1816 66.4026 11.3016C66.9493 11.4216 67.6293 11.5416 68.4426 11.6616C69.2026 11.7682 69.8893 11.9149 70.5026 12.1016C71.1293 12.2749 71.6626 12.5082 72.1026 12.8016C72.5559 13.0816 72.9026 13.4416 73.1426 13.8816C73.3826 14.3216 73.5026 14.8616 73.5026 15.5016C73.5026 16.2882 73.2959 16.9749 72.8826 17.5616C72.4826 18.1349 71.8559 18.5816 71.0026 18.9016C70.1626 19.2216 69.0693 19.3816 67.7226 19.3816C66.7626 19.3816 65.9159 19.2816 65.1826 19.0816C64.4493 18.8682 63.8159 18.5882 63.2826 18.2416C62.7493 17.8949 62.3159 17.5149 61.9826 17.1016C61.6493 16.6882 61.4093 16.2749 61.2626 15.8616C61.1293 15.4482 61.0759 15.0749 61.1026 14.7416ZM86.0093 6.16156H99.6493V8.38156H86.0093V6.16156ZM91.5093 8.10156H94.1693V19.1016H91.5093V8.10156ZM124.763 13.3816V6.16156H127.423V13.6616C127.423 14.5149 127.296 15.2616 127.043 15.9016C126.803 16.5416 126.456 17.0816 126.003 17.5216C125.55 17.9616 125.016 18.3216 124.403 18.6016C123.803 18.8682 123.143 19.0616 122.423 19.1816C121.716 19.3016 120.97 19.3616 120.183 19.3616C119.37 19.3616 118.596 19.3016 117.863 19.1816C117.13 19.0616 116.456 18.8682 115.843 18.6016C115.243 18.3216 114.723 17.9616 114.283 17.5216C113.843 17.0816 113.496 16.5416 113.243 15.9016C113.003 15.2616 112.883 14.5149 112.883 13.6616V6.16156H115.543V13.3816C115.543 14.3949 115.743 15.1682 116.143 15.7016C116.543 16.2216 117.09 16.5816 117.783 16.7816C118.49 16.9682 119.29 17.0616 120.183 17.0616C121.05 17.0616 121.823 16.9682 122.503 16.7816C123.196 16.5816 123.743 16.2216 124.143 15.7016C124.556 15.1682 124.763 14.3949 124.763 13.3816ZM149.2 6.16156C150.653 6.16156 151.867 6.3349 152.84 6.68156C153.813 7.02823 154.587 7.50156 155.16 8.10156C155.747 8.68823 156.16 9.36823 156.4 10.1416C156.653 10.9149 156.78 11.7282 156.78 12.5816C156.78 13.4349 156.64 14.2549 156.36 15.0416C156.093 15.8282 155.66 16.5282 155.06 17.1416C154.473 17.7416 153.693 18.2216 152.72 18.5816C151.76 18.9282 150.587 19.1016 149.2 19.1016H141.8V6.16156H149.2ZM144.46 16.8216H149.14C150.1 16.8216 150.893 16.7082 151.52 16.4816C152.16 16.2416 152.667 15.9216 153.04 15.5216C153.413 15.1216 153.68 14.6682 153.84 14.1616C154 13.6549 154.08 13.1282 154.08 12.5816C154.08 12.0349 154 11.5149 153.84 11.0216C153.68 10.5282 153.413 10.0882 153.04 9.70156C152.667 9.3149 152.16 9.00823 151.52 8.78156C150.893 8.55489 150.1 8.44156 149.14 8.44156H144.46V16.8216ZM171.058 6.16156H173.718V19.1016H171.058V6.16156ZM196.163 19.3616C194.443 19.3616 192.969 19.0949 191.743 18.5616C190.529 18.0149 189.596 17.2416 188.943 16.2416C188.303 15.2416 187.983 14.0416 187.983 12.6416C187.983 11.2282 188.303 10.0216 188.943 9.02156C189.596 8.02156 190.529 7.25489 191.743 6.72156C192.969 6.1749 194.443 5.90156 196.163 5.90156C197.896 5.90156 199.369 6.1749 200.583 6.72156C201.796 7.25489 202.723 8.02156 203.363 9.02156C204.016 10.0216 204.343 11.2282 204.343 12.6416C204.343 14.0416 204.016 15.2416 203.363 16.2416C202.723 17.2416 201.796 18.0149 200.583 18.5616C199.369 19.0949 197.896 19.3616 196.163 19.3616ZM196.163 17.0616C197.229 17.0616 198.163 16.9016 198.963 16.5816C199.776 16.2616 200.409 15.7749 200.863 15.1216C201.329 14.4682 201.563 13.6416 201.563 12.6416C201.563 11.6416 201.329 10.8149 200.863 10.1616C200.409 9.50823 199.776 9.02156 198.963 8.70156C198.163 8.36823 197.229 8.20156 196.163 8.20156C195.109 8.20156 194.169 8.36823 193.343 8.70156C192.516 9.02156 191.869 9.50823 191.403 10.1616C190.936 10.8149 190.703 11.6416 190.703 12.6416C190.703 13.6416 190.936 14.4682 191.403 15.1216C191.869 15.7749 192.516 16.2616 193.343 16.5816C194.169 16.9016 195.109 17.0616 196.163 17.0616ZM69.4026 43.3616C68.2026 43.3616 67.1159 43.2216 66.1426 42.9416C65.1826 42.6616 64.3493 42.2416 63.6426 41.6816C62.9493 41.1216 62.4159 40.4282 62.0426 39.6016C61.6693 38.7749 61.4826 37.8216 61.4826 36.7416C61.4826 35.6482 61.6759 34.6816 62.0626 33.8416C62.4626 32.9882 63.0226 32.2682 63.7426 31.6816C64.4759 31.0949 65.3426 30.6549 66.3426 30.3616C67.3559 30.0549 68.4759 29.9016 69.7026 29.9016C71.1559 29.9016 72.4093 30.1082 73.4626 30.5216C74.5159 30.9216 75.3426 31.4882 75.9426 32.2216C76.5559 32.9549 76.9026 33.8282 76.9826 34.8416H74.4226C74.2493 34.3082 73.9626 33.8482 73.5626 33.4616C73.1759 33.0616 72.6626 32.7549 72.0226 32.5416C71.3826 32.3149 70.6093 32.2016 69.7026 32.2016C68.5426 32.2016 67.5493 32.3882 66.7226 32.7616C65.9093 33.1349 65.2893 33.6616 64.8626 34.3416C64.4359 35.0216 64.2226 35.8216 64.2226 36.7416C64.2226 37.6349 64.4093 38.4082 64.7826 39.0616C65.1559 39.7016 65.7293 40.1949 66.5026 40.5416C67.2893 40.8882 68.2893 41.0616 69.5026 41.0616C70.4359 41.0616 71.2559 40.9416 71.9626 40.7016C72.6826 40.4482 73.2826 40.1149 73.7626 39.7016C74.2426 39.2749 74.5826 38.8016 74.7826 38.2816L75.8226 37.9016C75.6493 39.6216 74.9959 40.9616 73.8626 41.9216C72.7426 42.8816 71.2559 43.3616 69.4026 43.3616ZM75.1426 43.1016C75.1426 42.6882 75.1693 42.2149 75.2226 41.6816C75.2759 41.1349 75.3426 40.5882 75.4226 40.0416C75.5026 39.4816 75.5759 38.9682 75.6426 38.5016H69.7226V36.8016H77.4426V43.1016H75.1426ZM95.3439 43.1016V30.1616H104.124C105.124 30.1616 105.991 30.3016 106.724 30.5816C107.471 30.8482 108.051 31.2749 108.464 31.8616C108.877 32.4349 109.084 33.1749 109.084 34.0816C109.084 34.6949 108.977 35.2149 108.764 35.6416C108.551 36.0682 108.251 36.4149 107.864 36.6816C107.491 36.9482 107.057 37.1549 106.564 37.3016C106.071 37.4349 105.544 37.5216 104.984 37.5616L104.704 37.4016C105.637 37.4149 106.404 37.4949 107.004 37.6416C107.604 37.7749 108.051 38.0282 108.344 38.4016C108.651 38.7616 108.804 39.3016 108.804 40.0216V43.1016H106.144V40.2016C106.144 39.7082 106.057 39.3282 105.884 39.0616C105.711 38.7816 105.397 38.5882 104.944 38.4816C104.504 38.3749 103.864 38.3216 103.024 38.3216H98.0039V43.1016H95.3439ZM98.0039 36.2416H104.124C104.871 36.2416 105.437 36.0616 105.824 35.7016C106.224 35.3416 106.424 34.8549 106.424 34.2416C106.424 33.6549 106.224 33.2082 105.824 32.9016C105.437 32.5949 104.871 32.4416 104.124 32.4416H98.0039V36.2416ZM129.627 37.7016V40.8816H139.607V43.1016H126.967V30.1616H139.587V32.3816H129.627V35.6016H137.787V37.7016H129.627ZM160.098 37.7016V40.8816H170.078V43.1016H157.438V30.1616H170.058V32.3816H160.098V35.6016H168.258V37.7016H160.098ZM201.029 40.4616L200.189 40.8016V30.1616H202.849V43.1016H200.189L189.729 32.8816L190.569 32.5416V43.1016H187.909V30.1616H190.569L201.029 40.4616Z" fill="white"/>
<path d="M25.8043 0L27.283 17.4183L34.6299 1.55619L30.062 18.4297L42.391 6.03706L32.3275 20.3307L48.1515 12.9022L33.8062 22.8919L51.2166 21.3234L34.3197 25.8043L51.2166 30.2852L33.8062 28.7168L48.1515 38.7065L32.3275 31.2779L42.391 45.5716L30.062 33.1789L34.6299 50.0525L27.283 34.1904L25.8043 51.6086L24.3256 34.1904L16.9787 50.0525L21.5466 33.1789L9.21762 45.5716L19.2811 31.2779L3.45712 38.7065L17.8024 28.7168L0.392025 30.2852L17.2889 25.8043L0.392025 21.3234L17.8024 22.8919L3.45712 12.9022L19.2811 20.3307L9.21762 6.03706L21.5466 18.4297L16.9787 1.55619L24.3256 17.4183L25.8043 0Z" fill="white"/>
</svg>
