<svg width="23" height="23" viewBox="0 0 23 23" fill="none" xmlns="http://www.w3.org/2000/svg">
<path d="M16.4235 2.3341C17.6567 2.33764 18.8384 2.81062 19.7104 3.64974C20.5824 4.48886 21.0739 5.62594 21.0776 6.81263L21.0776 15.7687C21.0739 16.9554 20.5824 18.0925 19.7104 18.9316C18.8384 19.7708 17.6567 20.2437 16.4235 20.2473L7.11628 20.2473C5.88307 20.2437 4.70142 19.7708 3.8294 18.9316C2.95738 18.0925 2.46586 16.9554 2.46218 15.7687L2.46218 6.81263C2.46586 5.62594 2.95738 4.48886 3.8294 3.64974C4.70142 2.81062 5.88307 2.33764 7.11628 2.3341L16.4235 2.3341ZM16.4235 0.542969L7.11628 0.542969C3.53271 0.542969 0.60083 3.36424 0.60083 6.81263L0.60083 15.7687C0.60083 19.2171 3.53271 22.0384 7.11628 22.0384L16.4235 22.0384C20.0071 22.0384 22.939 19.2171 22.939 15.7687L22.939 6.81263C22.939 3.36424 20.0071 0.542969 16.4235 0.542969Z" fill="#1C1F35"/>
<path d="M17.8196 6.81291C17.5435 6.81291 17.2735 6.73411 17.0439 6.58649C16.8143 6.43887 16.6354 6.22905 16.5297 5.98356C16.4241 5.73808 16.3964 5.46795 16.4503 5.20734C16.5041 4.94674 16.6371 4.70736 16.8324 4.51947C17.0276 4.33158 17.2764 4.20363 17.5472 4.15179C17.818 4.09995 18.0987 4.12656 18.3539 4.22824C18.609 4.32993 18.827 4.50212 18.9804 4.72305C19.1338 4.94398 19.2157 5.20373 19.2157 5.46944C19.2161 5.64597 19.1803 5.82084 19.1102 5.98401C19.0402 6.14718 18.9374 6.29543 18.8077 6.42026C18.678 6.54509 18.5239 6.64403 18.3543 6.71141C18.1848 6.77879 18.003 6.81329 17.8196 6.81291ZM11.7698 7.70823C12.5062 7.70823 13.2261 7.91835 13.8383 8.31203C14.4506 8.7057 14.9278 9.26525 15.2096 9.91991C15.4914 10.5746 15.5651 11.2949 15.4215 11.9899C15.2778 12.6849 14.9232 13.3233 14.4025 13.8243C13.8818 14.3254 13.2184 14.6666 12.4962 14.8049C11.774 14.9431 11.0254 14.8721 10.345 14.601C9.66471 14.3298 9.08323 13.8706 8.67412 13.2814C8.26501 12.6922 8.04665 11.9996 8.04665 11.291C8.04771 10.3411 8.44031 9.43038 9.13831 8.75871C9.83632 8.08704 10.7827 7.70925 11.7698 7.70823ZM11.7698 5.9171C10.6653 5.9171 9.58561 6.23227 8.66724 6.82276C7.74887 7.41325 7.03308 8.25253 6.6104 9.23447C6.18772 10.2164 6.07713 11.2969 6.29261 12.3393C6.50809 13.3818 7.03997 14.3393 7.82098 15.0909C8.60199 15.8424 9.59706 16.3542 10.6803 16.5616C11.7636 16.7689 12.8865 16.6625 13.9069 16.2558C14.9274 15.849 15.7996 15.1602 16.4132 14.2765C17.0268 13.3928 17.3544 12.3538 17.3544 11.291C17.3544 9.86573 16.766 8.49886 15.7187 7.49107C14.6714 6.48328 13.2509 5.9171 11.7698 5.9171Z" fill="#1C1F35"/>
</svg>
