<svg width="24" height="23" viewBox="0 0 24 23" fill="none" xmlns="http://www.w3.org/2000/svg">
<path fill-rule="evenodd" clip-rule="evenodd" d="M23.511 11.3532C23.511 5.38346 18.3432 0.542969 11.9697 0.542969C5.59618 0.542969 0.428345 5.38346 0.428345 11.3532C0.428345 16.7487 4.64814 21.221 10.1663 22.0327L10.1663 14.4791L7.23515 14.4791L7.23515 11.3532L10.1663 11.3532L10.1663 8.97161C10.1663 6.26276 11.8898 4.76525 14.5258 4.76525C15.7886 4.76525 17.1097 4.97663 17.1097 4.97663L17.1097 7.63721L15.6536 7.63721C14.2207 7.63721 13.7725 8.47018 13.7725 9.32632L13.7725 11.3532L16.9731 11.3532L16.462 14.4791L13.773 14.4791L13.773 22.0337C19.2912 21.2224 23.511 16.7502 23.511 11.3532Z" fill="#1C1F35"/>
</svg>
