<svg width="82" height="66" viewBox="0 0 82 66" fill="none" xmlns="http://www.w3.org/2000/svg">
<g filter="url(#filter0_d_221_663)">
<path d="M21.3043 55.4348H57.1739" stroke="#1C1F35" stroke-width="2" stroke-linecap="round" stroke-linejoin="round"/>
<path d="M38.3334 40.4766L53.8554 31.1317" stroke="#1C1F35" stroke-width="2" stroke-linecap="round" stroke-linejoin="round"/>
<path d="M13.6957 37.8877L19.7109 43.9029" stroke="#1C1F35" stroke-width="2" stroke-linecap="round" stroke-linejoin="round"/>
<path d="M5 35.7139L11.0152 41.7291" stroke="#1C1F35" stroke-width="2" stroke-linecap="round" stroke-linejoin="round"/>
<path d="M19.7683 35.4434L29.2258 44.5155C30.4869 45.7266 32.0958 46.4883 33.8134 46.6874C35.5309 46.8865 37.2653 46.5124 38.7586 45.6206L76.7392 23.0045L72.0732 17.1449C70.8594 15.6262 69.1554 14.6023 67.2691 14.2582C65.3829 13.9141 63.4387 14.2726 61.7878 15.2688L50.6495 21.9765L35.5977 16.8365L31.4585 18.6612C31.1488 18.7971 30.8776 19.0108 30.6697 19.2824C30.4618 19.554 30.324 19.8749 30.269 20.2154C30.2141 20.556 30.2437 20.9052 30.3551 21.2309C30.4665 21.5567 30.6562 21.8484 30.9066 22.0793L38.6081 29.1725L31.5839 33.2845L24.5598 30.2005L20.3453 32.0509C20.0387 32.1859 19.7698 32.397 19.5628 32.6652C19.3559 32.9335 19.2176 33.2503 19.1603 33.5871C19.103 33.9239 19.1286 34.27 19.2348 34.5941C19.3409 34.9183 19.5243 35.2101 19.7683 35.4434V35.4434Z" stroke="#1C1F35" stroke-width="2" stroke-linecap="round" stroke-linejoin="round"/>
<path d="M72.9348 18.4782C66.9048 23.2142 60.9524 23.8095 56.6305 18.4782L60.0264 16.2708C64.2465 13.5278 69.866 14.4887 72.9348 18.4782Z" fill="#FFD550" stroke="#1C1F35" stroke-width="2"/>
</g>
<defs>
<filter id="filter0_d_221_663" x="0" y="13.1308" width="81.7393" height="51.304" filterUnits="userSpaceOnUse" color-interpolation-filters="sRGB">
<feFlood flood-opacity="0" result="BackgroundImageFix"/>
<feColorMatrix in="SourceAlpha" type="matrix" values="0 0 0 0 0 0 0 0 0 0 0 0 0 0 0 0 0 0 127 0" result="hardAlpha"/>
<feOffset dy="4"/>
<feGaussianBlur stdDeviation="2"/>
<feComposite in2="hardAlpha" operator="out"/>
<feColorMatrix type="matrix" values="0 0 0 0 0 0 0 0 0 0 0 0 0 0 0 0 0 0 0.25 0"/>
<feBlend mode="normal" in2="BackgroundImageFix" result="effect1_dropShadow_221_663"/>
<feBlend mode="normal" in="SourceGraphic" in2="effect1_dropShadow_221_663" result="shape"/>
</filter>
</defs>
</svg>
