<svg width="62" height="62" viewBox="0 0 62 62" fill="none" xmlns="http://www.w3.org/2000/svg">
<path d="M42.0715 28.7857V18.8214H47.6683C50.5029 18.8214 53.0576 20.5308 54.139 23.151L56.1793 28.095C56.3152 28.4241 56.0732 28.7857 55.7171 28.7857H42.0715Z" fill="#FFD550" stroke="#1C1F35" stroke-width="2"/>
<path d="M4.42847 35.4286H42.0713" stroke="#1C1F35" stroke-width="2" stroke-linecap="round" stroke-linejoin="round"/>
<path d="M45.3929 53.1431C49.0616 53.1431 52.0357 50.169 52.0357 46.5003C52.0357 42.8315 49.0616 39.8574 45.3929 39.8574C41.7241 39.8574 38.75 42.8315 38.75 46.5003C38.75 50.169 41.7241 53.1431 45.3929 53.1431Z" stroke="#1C1F35" stroke-width="2" stroke-linecap="round" stroke-linejoin="round"/>
<path d="M16.6072 53.1431C20.276 53.1431 23.2501 50.169 23.2501 46.5003C23.2501 42.8315 20.276 39.8574 16.6072 39.8574C12.9385 39.8574 9.96436 42.8315 9.96436 46.5003C9.96436 50.169 12.9385 53.1431 16.6072 53.1431Z" fill="#FFD550" stroke="#1C1F35" stroke-width="2" stroke-linecap="round" stroke-linejoin="round"/>
<path d="M38.75 45.3926H23.25" stroke="#1C1F35" stroke-width="2" stroke-linecap="round" stroke-linejoin="round"/>
<path d="M9.90882 45.3926H6.31061C5.81143 45.3926 5.3327 45.1884 4.97973 44.8251C4.62676 44.4617 4.42847 43.9689 4.42847 43.4551V16.3301C4.42847 15.8162 4.62676 15.3234 4.97973 14.9601C5.3327 14.5967 5.81143 14.3926 6.31061 14.3926H42.0713V40.3551" stroke="#1C1F35" stroke-width="2" stroke-linecap="round" stroke-linejoin="round"/>
<path d="M42.0715 28.7861H57.5715V43.548C57.5715 44.0374 57.3674 44.5068 57.0041 44.8528C56.6407 45.1989 56.1479 45.3933 55.634 45.3933H51.8974" stroke="#1C1F35" stroke-width="2" stroke-linecap="round" stroke-linejoin="round"/>
<path d="M8.85718 28.0946L8.85718 18.8214" stroke="#1C1F35" stroke-width="2" stroke-linecap="round" stroke-linejoin="round"/>
<path d="M28.7856 31L38.0588 31" stroke="#1C1F35" stroke-width="2" stroke-linecap="round" stroke-linejoin="round"/>
<path d="M28.7857 49.7148L32.1072 49.7148" stroke="#1C1F35" stroke-width="2" stroke-linecap="round" stroke-linejoin="round"/>
</svg>
