<svg width="57" height="46" viewBox="0 0 57 46" fill="none" xmlns="http://www.w3.org/2000/svg">
<path d="M2.33325 45H54.7142" stroke="#141414" stroke-width="2" stroke-linecap="round" stroke-linejoin="round"/>
<path d="M32.7142 45V2.91304C32.7142 2.40567 32.5092 1.91908 32.1443 1.56032C31.7795 1.20155 31.2846 1 30.7686 1H7.42165C6.90565 1 6.41079 1.20155 6.04592 1.56032C5.68105 1.91908 5.47607 2.40567 5.47607 2.91304V45" stroke="#141414" stroke-width="2" stroke-linecap="round" stroke-linejoin="round"/>
<path d="M32.7144 13.5714H48.5715C50.2283 13.5714 51.5715 14.9146 51.5715 16.5714V43.9524H32.7144V13.5714Z" fill="#FFD550" stroke="#141414" stroke-width="2" stroke-linecap="round" stroke-linejoin="round"/>
<path d="M13.8572 10.4286H21.1905" stroke="#141414" stroke-width="2" stroke-linecap="round" stroke-linejoin="round"/>
<path d="M1.28564 40.8095L1.28564 26.1428" stroke="#141414" stroke-width="2" stroke-linecap="round" stroke-linejoin="round"/>
<path d="M55.7617 30.3333L55.7617 15.6667" stroke="#141414" stroke-width="2" stroke-linecap="round" stroke-linejoin="round"/>
<path d="M35.8572 9.38095L43.1905 9.38095" stroke="#141414" stroke-width="2" stroke-linecap="round" stroke-linejoin="round"/>
<path d="M17 26.1429H24.3333" stroke="#141414" stroke-width="2" stroke-linecap="round" stroke-linejoin="round"/>
<path d="M13.8572 35.5714H21.1905" stroke="#141414" stroke-width="2" stroke-linecap="round" stroke-linejoin="round"/>
<path d="M40.0476 35.5714H44.2381" stroke="#141414" stroke-width="2" stroke-linecap="round" stroke-linejoin="round"/>
<path d="M40.0476 26.1429H44.2381" stroke="#141414" stroke-width="2" stroke-linecap="round" stroke-linejoin="round"/>
</svg>
