<svg width="20" height="16" viewBox="0 0 20 16" fill="none" xmlns="http://www.w3.org/2000/svg">
<path d="M19.5759 2.15351C18.8568 2.46573 18.096 2.67143 17.3175 2.7641C18.1356 2.28536 18.7509 1.52479 19.0479 0.625049C18.2744 1.07704 17.4295 1.39418 16.5495 1.56288C16.1789 1.17479 15.7333 0.866054 15.2396 0.655437C14.7459 0.444821 14.2145 0.336723 13.6777 0.337714C11.5044 0.337714 9.74558 2.06971 9.74558 4.20477C9.74404 4.50175 9.77809 4.79784 9.84702 5.08673C8.28858 5.01372 6.76255 4.61645 5.36657 3.92033C3.97058 3.22421 2.73537 2.24457 1.73996 1.04408C1.39075 1.63237 1.20607 2.30358 1.20522 2.98758C1.20522 4.32848 1.9053 5.51374 2.96241 6.20813C2.3361 6.19328 1.72263 6.02763 1.17407 5.72525V5.77314C1.17407 7.6488 2.5319 9.20919 4.32903 9.56437C3.99108 9.65439 3.64283 9.70001 3.29308 9.70006C3.04491 9.70049 2.7973 9.67642 2.55386 9.62822C3.05347 11.1647 4.50754 12.2821 6.22999 12.314C4.83038 13.3919 3.11202 13.9745 1.345 13.9702C1.03134 13.9697 0.717983 13.9511 0.406494 13.9143C2.2041 15.0613 4.29366 15.6681 6.42648 15.6623C13.6693 15.6623 17.6262 9.7679 17.6262 4.65572C17.6262 4.48811 17.6218 4.3205 17.6138 4.15688C18.3818 3.61097 19.0462 2.93256 19.5759 2.15351Z" fill="white"/>
</svg>
