<svg width="20" height="20" viewBox="0 0 20 20" fill="none" xmlns="http://www.w3.org/2000/svg">
<path d="M14.0759 2.03218C15.173 2.03533 16.2242 2.4561 17 3.20258C17.7757 3.94907 18.213 4.96062 18.2162 6.0163V13.9837C18.213 15.0394 17.7757 16.0509 17 16.7974C16.2242 17.5439 15.173 17.9647 14.0759 17.9678H5.79618C4.69911 17.9647 3.6479 17.5439 2.87215 16.7974C2.0964 16.0509 1.65914 15.0394 1.65586 13.9837V6.0163C1.65914 4.96062 2.0964 3.94907 2.87215 3.20258C3.6479 2.4561 4.69911 2.03533 5.79618 2.03218H14.0759ZM14.0759 0.438782H5.79618C2.60821 0.438782 0 2.9486 0 6.0163V13.9837C0 17.0514 2.60821 19.5612 5.79618 19.5612H14.0759C17.2639 19.5612 19.8721 17.0514 19.8721 13.9837V6.0163C19.8721 2.9486 17.2639 0.438782 14.0759 0.438782Z" fill="white"/>
<path d="M15.3179 6.01643C15.0723 6.01643 14.8322 5.94634 14.6279 5.81502C14.4237 5.68369 14.2645 5.49703 14.1705 5.27865C14.0765 5.06026 14.0519 4.81996 14.0998 4.58812C14.1477 4.35628 14.266 4.14333 14.4397 3.97618C14.6134 3.80904 14.8347 3.69521 15.0756 3.64909C15.3165 3.60298 15.5663 3.62665 15.7932 3.71711C16.0202 3.80756 16.2141 3.96075 16.3506 4.15729C16.4871 4.35383 16.5599 4.5849 16.5599 4.82128C16.5603 4.97833 16.5284 5.13389 16.4661 5.27905C16.4038 5.4242 16.3123 5.55609 16.1969 5.66714C16.0815 5.77818 15.9445 5.8662 15.7936 5.92615C15.6428 5.98609 15.4811 6.01677 15.3179 6.01643ZM9.93605 6.81292C10.5911 6.81292 11.2315 6.99985 11.7762 7.35006C12.3209 7.70028 12.7454 8.19805 12.9961 8.78044C13.2468 9.36283 13.3124 10.0037 13.1846 10.6219C13.0568 11.2402 12.7413 11.8081 12.2781 12.2538C11.8149 12.6996 11.2247 13.0031 10.5822 13.1261C9.93972 13.2491 9.27375 13.186 8.66854 12.9447C8.06332 12.7035 7.54603 12.295 7.18208 11.7709C6.81814 11.2467 6.62388 10.6305 6.62388 10.0001C6.62482 9.15511 6.97408 8.34495 7.59503 7.74743C8.21598 7.14991 9.05789 6.81382 9.93605 6.81292ZM9.93605 5.21952C8.95346 5.21952 7.99295 5.4999 7.17596 6.0252C6.35897 6.5505 5.72221 7.29713 5.34619 8.17067C4.97017 9.04421 4.87179 10.0054 5.06348 10.9328C5.25517 11.8601 5.72833 12.712 6.42312 13.3805C7.11791 14.0491 8.00313 14.5044 8.96683 14.6889C9.93053 14.8733 10.9294 14.7787 11.8372 14.4168C12.745 14.055 13.5209 13.4423 14.0668 12.6561C14.6127 11.8699 14.9041 10.9456 14.9041 10.0001C14.9041 8.73224 14.3807 7.51627 13.449 6.61973C12.5173 5.72319 11.2536 5.21952 9.93605 5.21952Z" fill="white"/>
</svg>
