<svg width="20" height="20" viewBox="0 0 20 20" fill="none" xmlns="http://www.w3.org/2000/svg">
<path d="M18.4413 0.290817H2.23516C1.34963 0.290817 0.575928 0.927982 0.575928 1.80311V18.0452C0.575928 18.9251 1.34963 19.7092 2.23516 19.7092H18.4365C19.3268 19.7092 19.9943 18.9199 19.9943 18.0452V1.80311C19.9995 0.927982 19.3268 0.290817 18.4413 0.290817ZM6.59519 16.477H3.81333V7.82757H6.59519V16.477ZM5.30048 6.51249H5.28055C4.39025 6.51249 3.81377 5.84976 3.81377 5.02014C3.81377 4.17536 4.40542 3.52822 5.31565 3.52822C6.22589 3.52822 6.78287 4.17059 6.80281 5.02014C6.80237 5.84976 6.22589 6.51249 5.30048 6.51249ZM16.7621 16.477H13.9802V11.7477C13.9802 10.6146 13.5754 9.84049 12.5689 9.84049C11.8 9.84049 11.3449 10.3606 11.1425 10.8673C11.0666 11.0494 11.0462 11.2973 11.0462 11.5504V16.477H8.26438V7.82757H11.0462V9.03125C11.4511 8.45476 12.0835 7.62515 13.555 7.62515C15.3811 7.62515 16.7625 8.82883 16.7625 11.4239L16.7621 16.477Z" fill="white"/>
</svg>
